<svg version="1.1" xmlns="http://www.w3.org/2000/svg" viewBox="0 0 103.13672000118913 96.04524091781786" width="206.27344000237827" height="192.09048183563573">
  <!-- svg-source:excalidraw -->
  
  <defs>
    <style class="style-fonts">
      @font-face {
        font-family: "Virgil";
        src: url("https://excalidraw.com/Virgil.woff2");
      }
      @font-face {
        font-family: "Cascadia";
        src: url("https://excalidraw.com/Cascadia.woff2");
      }
      @font-face {
        font-family: "Assistant";
        src: url("https://excalidraw.com/Assistant-Regular.woff2");
      }
    </style>
    
  </defs>
  <g stroke-linecap="round" transform="translate(46.98475822643377 32.00766115498482) rotate(0 6.590766497206914 6.836228680662316)"><path d="M13.18 6.84 C13.18 7.23, 13.15 7.63, 13.08 8.02 C13.02 8.41, 12.91 8.8, 12.78 9.17 C12.65 9.55, 12.49 9.91, 12.3 10.25 C12.11 10.6, 11.88 10.93, 11.64 11.23 C11.39 11.53, 11.12 11.82, 10.83 12.07 C10.53 12.33, 10.22 12.56, 9.89 12.76 C9.56 12.95, 9.2 13.12, 8.84 13.26 C8.49 13.4, 8.11 13.5, 7.74 13.57 C7.36 13.64, 6.97 13.67, 6.59 13.67 C6.21 13.67, 5.82 13.64, 5.45 13.57 C5.07 13.5, 4.7 13.4, 4.34 13.26 C3.98 13.12, 3.63 12.95, 3.3 12.76 C2.97 12.56, 2.65 12.33, 2.35 12.07 C2.06 11.82, 1.79 11.53, 1.54 11.23 C1.3 10.93, 1.07 10.6, 0.88 10.25 C0.69 9.91, 0.53 9.55, 0.4 9.17 C0.27 8.8, 0.17 8.41, 0.1 8.02 C0.03 7.63, 0 7.23, 0 6.84 C0 6.44, 0.03 6.04, 0.1 5.65 C0.17 5.26, 0.27 4.87, 0.4 4.5 C0.53 4.13, 0.69 3.76, 0.88 3.42 C1.07 3.08, 1.3 2.75, 1.54 2.44 C1.79 2.14, 2.06 1.85, 2.35 1.6 C2.65 1.35, 2.97 1.11, 3.3 0.92 C3.63 0.72, 3.98 0.55, 4.34 0.41 C4.7 0.28, 5.07 0.17, 5.45 0.1 C5.82 0.04, 6.21 0, 6.59 0 C6.97 0, 7.36 0.04, 7.74 0.1 C8.11 0.17, 8.49 0.28, 8.84 0.41 C9.2 0.55, 9.56 0.72, 9.89 0.92 C10.22 1.11, 10.53 1.35, 10.83 1.6 C11.12 1.85, 11.39 2.14, 11.64 2.44 C11.88 2.75, 12.11 3.08, 12.3 3.42 C12.49 3.76, 12.65 4.13, 12.78 4.5 C12.91 4.87, 13.02 5.26, 13.08 5.65 C13.15 6.04, 13.16 6.64, 13.18 6.84 C13.2 7.03, 13.2 6.64, 13.18 6.84" stroke="#1e1e1e" stroke-width="4" fill="none"></path></g><g stroke-linecap="round" transform="translate(46.3061962169013 10) rotate(0 6.590766497206914 6.836228680662316)"><path d="M13.18 6.84 C13.18 7.23, 13.15 7.63, 13.08 8.02 C13.02 8.41, 12.91 8.8, 12.78 9.17 C12.65 9.55, 12.49 9.91, 12.3 10.25 C12.11 10.6, 11.88 10.93, 11.64 11.23 C11.39 11.53, 11.12 11.82, 10.83 12.07 C10.53 12.33, 10.22 12.56, 9.89 12.76 C9.56 12.95, 9.2 13.12, 8.84 13.26 C8.49 13.4, 8.11 13.5, 7.74 13.57 C7.36 13.64, 6.97 13.67, 6.59 13.67 C6.21 13.67, 5.82 13.64, 5.45 13.57 C5.07 13.5, 4.7 13.4, 4.34 13.26 C3.98 13.12, 3.63 12.95, 3.3 12.76 C2.97 12.56, 2.65 12.33, 2.35 12.07 C2.06 11.82, 1.79 11.53, 1.54 11.23 C1.3 10.93, 1.07 10.6, 0.88 10.25 C0.69 9.91, 0.53 9.55, 0.4 9.17 C0.27 8.8, 0.17 8.41, 0.1 8.02 C0.03 7.63, 0 7.23, 0 6.84 C0 6.44, 0.03 6.04, 0.1 5.65 C0.17 5.26, 0.27 4.87, 0.4 4.5 C0.53 4.13, 0.69 3.76, 0.88 3.42 C1.07 3.08, 1.3 2.75, 1.54 2.44 C1.79 2.14, 2.06 1.85, 2.35 1.6 C2.65 1.35, 2.97 1.11, 3.3 0.92 C3.63 0.72, 3.98 0.55, 4.34 0.41 C4.7 0.28, 5.07 0.17, 5.45 0.1 C5.82 0.04, 6.21 0, 6.59 0 C6.97 0, 7.36 0.04, 7.74 0.1 C8.11 0.17, 8.49 0.28, 8.84 0.41 C9.2 0.55, 9.56 0.72, 9.89 0.92 C10.22 1.11, 10.53 1.35, 10.83 1.6 C11.12 1.85, 11.39 2.14, 11.64 2.44 C11.88 2.75, 12.11 3.08, 12.3 3.42 C12.49 3.76, 12.65 4.13, 12.78 4.5 C12.91 4.87, 13.02 5.26, 13.08 5.65 C13.15 6.04, 13.16 6.64, 13.18 6.84 C13.2 7.03, 13.2 6.64, 13.18 6.84" stroke="#1e1e1e" stroke-width="4" fill="none"></path></g><g stroke-linecap="round" transform="translate(46.234401449389225 53.17221827531466) rotate(0 6.590766497206914 6.836228680662316)"><path d="M13.18 6.84 C13.18 7.23, 13.15 7.63, 13.08 8.02 C13.02 8.41, 12.91 8.8, 12.78 9.17 C12.65 9.55, 12.49 9.91, 12.3 10.25 C12.11 10.6, 11.88 10.93, 11.64 11.23 C11.39 11.53, 11.12 11.82, 10.83 12.07 C10.53 12.33, 10.22 12.56, 9.89 12.76 C9.56 12.95, 9.2 13.12, 8.84 13.26 C8.49 13.4, 8.11 13.5, 7.74 13.57 C7.36 13.64, 6.97 13.67, 6.59 13.67 C6.21 13.67, 5.82 13.64, 5.45 13.57 C5.07 13.5, 4.7 13.4, 4.34 13.26 C3.98 13.12, 3.63 12.95, 3.3 12.76 C2.97 12.56, 2.65 12.33, 2.35 12.07 C2.06 11.82, 1.79 11.53, 1.54 11.23 C1.3 10.93, 1.07 10.6, 0.88 10.25 C0.69 9.91, 0.53 9.55, 0.4 9.17 C0.27 8.8, 0.17 8.41, 0.1 8.02 C0.03 7.63, 0 7.23, 0 6.84 C0 6.44, 0.03 6.04, 0.1 5.65 C0.17 5.26, 0.27 4.87, 0.4 4.5 C0.53 4.13, 0.69 3.76, 0.88 3.42 C1.07 3.08, 1.3 2.75, 1.54 2.44 C1.79 2.14, 2.06 1.85, 2.35 1.6 C2.65 1.35, 2.97 1.11, 3.3 0.92 C3.63 0.72, 3.98 0.55, 4.34 0.41 C4.7 0.28, 5.07 0.17, 5.45 0.1 C5.82 0.04, 6.21 0, 6.59 0 C6.97 0, 7.36 0.04, 7.74 0.1 C8.11 0.17, 8.49 0.28, 8.84 0.41 C9.2 0.55, 9.56 0.72, 9.89 0.92 C10.22 1.11, 10.53 1.35, 10.83 1.6 C11.12 1.85, 11.39 2.14, 11.64 2.44 C11.88 2.75, 12.11 3.08, 12.3 3.42 C12.49 3.76, 12.65 4.13, 12.78 4.5 C12.91 4.87, 13.02 5.26, 13.08 5.65 C13.15 6.04, 13.16 6.64, 13.18 6.84 C13.2 7.03, 13.2 6.64, 13.18 6.84" stroke="#1e1e1e" stroke-width="4" fill="none"></path></g><g stroke-linecap="round" transform="translate(13.931863096757297 19.805947763146833) rotate(0 6.590766497206914 6.836228680662316)"><path d="M13.18 6.84 C13.18 7.23, 13.15 7.63, 13.08 8.02 C13.02 8.41, 12.91 8.8, 12.78 9.17 C12.65 9.55, 12.49 9.91, 12.3 10.25 C12.11 10.6, 11.88 10.93, 11.64 11.23 C11.39 11.53, 11.12 11.82, 10.83 12.07 C10.53 12.33, 10.22 12.56, 9.89 12.76 C9.56 12.95, 9.2 13.12, 8.84 13.26 C8.49 13.4, 8.11 13.5, 7.74 13.57 C7.36 13.64, 6.97 13.67, 6.59 13.67 C6.21 13.67, 5.82 13.64, 5.45 13.57 C5.07 13.5, 4.7 13.4, 4.34 13.26 C3.98 13.12, 3.63 12.95, 3.3 12.76 C2.97 12.56, 2.65 12.33, 2.35 12.07 C2.06 11.82, 1.79 11.53, 1.54 11.23 C1.3 10.93, 1.07 10.6, 0.88 10.25 C0.69 9.91, 0.53 9.55, 0.4 9.17 C0.27 8.8, 0.17 8.41, 0.1 8.02 C0.03 7.63, 0 7.23, 0 6.84 C0 6.44, 0.03 6.04, 0.1 5.65 C0.17 5.26, 0.27 4.87, 0.4 4.5 C0.53 4.13, 0.69 3.76, 0.88 3.42 C1.07 3.08, 1.3 2.75, 1.54 2.44 C1.79 2.14, 2.06 1.85, 2.35 1.6 C2.65 1.35, 2.97 1.11, 3.3 0.92 C3.63 0.72, 3.98 0.55, 4.34 0.41 C4.7 0.28, 5.07 0.17, 5.45 0.1 C5.82 0.04, 6.21 0, 6.59 0 C6.97 0, 7.36 0.04, 7.74 0.1 C8.11 0.17, 8.49 0.28, 8.84 0.41 C9.2 0.55, 9.56 0.72, 9.89 0.92 C10.22 1.11, 10.53 1.35, 10.83 1.6 C11.12 1.85, 11.39 2.14, 11.64 2.44 C11.88 2.75, 12.11 3.08, 12.3 3.42 C12.49 3.76, 12.65 4.13, 12.78 4.5 C12.91 4.87, 13.02 5.26, 13.08 5.65 C13.15 6.04, 13.16 6.64, 13.18 6.84 C13.2 7.03, 13.2 6.64, 13.18 6.84" stroke="#1e1e1e" stroke-width="4" fill="none"></path></g><g stroke-linecap="round" transform="translate(13.858654777138327 41.29068583537082) rotate(0 6.590766497206914 6.836228680662316)"><path d="M13.18 6.84 C13.18 7.23, 13.15 7.63, 13.08 8.02 C13.02 8.41, 12.91 8.8, 12.78 9.17 C12.65 9.55, 12.49 9.91, 12.3 10.25 C12.11 10.6, 11.88 10.93, 11.64 11.23 C11.39 11.53, 11.12 11.82, 10.83 12.07 C10.53 12.33, 10.22 12.56, 9.89 12.76 C9.56 12.95, 9.2 13.12, 8.84 13.26 C8.49 13.4, 8.11 13.5, 7.74 13.57 C7.36 13.64, 6.97 13.67, 6.59 13.67 C6.21 13.67, 5.82 13.64, 5.45 13.57 C5.07 13.5, 4.7 13.4, 4.34 13.26 C3.98 13.12, 3.63 12.95, 3.3 12.76 C2.97 12.56, 2.65 12.33, 2.35 12.07 C2.06 11.82, 1.79 11.53, 1.54 11.23 C1.3 10.93, 1.07 10.6, 0.88 10.25 C0.69 9.91, 0.53 9.55, 0.4 9.17 C0.27 8.8, 0.17 8.41, 0.1 8.02 C0.03 7.63, 0 7.23, 0 6.84 C0 6.44, 0.03 6.04, 0.1 5.65 C0.17 5.26, 0.27 4.87, 0.4 4.5 C0.53 4.13, 0.69 3.76, 0.88 3.42 C1.07 3.08, 1.3 2.75, 1.54 2.44 C1.79 2.14, 2.06 1.85, 2.35 1.6 C2.65 1.35, 2.97 1.11, 3.3 0.92 C3.63 0.72, 3.98 0.55, 4.34 0.41 C4.7 0.28, 5.07 0.17, 5.45 0.1 C5.82 0.04, 6.21 0, 6.59 0 C6.97 0, 7.36 0.04, 7.74 0.1 C8.11 0.17, 8.49 0.28, 8.84 0.41 C9.2 0.55, 9.56 0.72, 9.89 0.92 C10.22 1.11, 10.53 1.35, 10.83 1.6 C11.12 1.85, 11.39 2.14, 11.64 2.44 C11.88 2.75, 12.11 3.08, 12.3 3.42 C12.49 3.76, 12.65 4.13, 12.78 4.5 C12.91 4.87, 13.02 5.26, 13.08 5.65 C13.15 6.04, 13.16 6.64, 13.18 6.84 C13.2 7.03, 13.2 6.64, 13.18 6.84" stroke="#1e1e1e" stroke-width="4" fill="none"></path></g><g stroke-linecap="round" transform="translate(75.65479825231068 31.946878414371895) rotate(0 6.590766497206914 6.836228680662316)"><path d="M13.18 6.84 C13.18 7.23, 13.15 7.63, 13.08 8.02 C13.02 8.41, 12.91 8.8, 12.78 9.17 C12.65 9.55, 12.49 9.91, 12.3 10.25 C12.11 10.6, 11.88 10.93, 11.64 11.23 C11.39 11.53, 11.12 11.82, 10.83 12.07 C10.53 12.33, 10.22 12.56, 9.89 12.76 C9.56 12.95, 9.2 13.12, 8.84 13.26 C8.49 13.4, 8.11 13.5, 7.74 13.57 C7.36 13.64, 6.97 13.67, 6.59 13.67 C6.21 13.67, 5.82 13.64, 5.45 13.57 C5.07 13.5, 4.7 13.4, 4.34 13.26 C3.98 13.12, 3.63 12.95, 3.3 12.76 C2.97 12.56, 2.65 12.33, 2.35 12.07 C2.06 11.82, 1.79 11.53, 1.54 11.23 C1.3 10.93, 1.07 10.6, 0.88 10.25 C0.69 9.91, 0.53 9.55, 0.4 9.17 C0.27 8.8, 0.17 8.41, 0.1 8.02 C0.03 7.63, 0 7.23, 0 6.84 C0 6.44, 0.03 6.04, 0.1 5.65 C0.17 5.26, 0.27 4.87, 0.4 4.5 C0.53 4.13, 0.69 3.76, 0.88 3.42 C1.07 3.08, 1.3 2.75, 1.54 2.44 C1.79 2.14, 2.06 1.85, 2.35 1.6 C2.65 1.35, 2.97 1.11, 3.3 0.92 C3.63 0.72, 3.98 0.55, 4.34 0.41 C4.7 0.28, 5.07 0.17, 5.45 0.1 C5.82 0.04, 6.21 0, 6.59 0 C6.97 0, 7.36 0.04, 7.74 0.1 C8.11 0.17, 8.49 0.28, 8.84 0.41 C9.2 0.55, 9.56 0.72, 9.89 0.92 C10.22 1.11, 10.53 1.35, 10.83 1.6 C11.12 1.85, 11.39 2.14, 11.64 2.44 C11.88 2.75, 12.11 3.08, 12.3 3.42 C12.49 3.76, 12.65 4.13, 12.78 4.5 C12.91 4.87, 13.02 5.26, 13.08 5.65 C13.15 6.04, 13.16 6.64, 13.18 6.84 C13.2 7.03, 13.2 6.64, 13.18 6.84" stroke="#1e1e1e" stroke-width="4" fill="none"></path></g><g stroke-linecap="round"><g transform="translate(27.826179741236047 22.542692939059634) rotate(0 8.839100921035424 -2.2686542353712866)"><path d="M0 0 C2.95 -0.76, 14.73 -3.78, 17.68 -4.54 M0 0 C2.95 -0.76, 14.73 -3.78, 17.68 -4.54" stroke="#1e1e1e" stroke-width="4" fill="none"></path></g></g><mask></mask><g stroke-linecap="round"><g transform="translate(60.10197459996925 17.804591671407252) rotate(0 8.85623454052893 7.564282113371519)"><path d="M0 0 C2.95 2.52, 14.76 12.61, 17.71 15.13 M0 0 C2.95 2.52, 14.76 12.61, 17.71 15.13" stroke="#1e1e1e" stroke-width="4" fill="none"></path></g></g><mask></mask><g stroke-linecap="round"><g transform="translate(60.57168428566274 39.233277842733514) rotate(0 7.260220215340723 0.03999554490474111)"><path d="M0 0 C2.42 0.01, 12.1 0.07, 14.52 0.08 M0 0 C2.42 0.01, 12.1 0.07, 14.52 0.08" stroke="#1e1e1e" stroke-width="4" fill="none"></path></g></g><mask></mask><g stroke-linecap="round"><g transform="translate(58.82642621702507 58.78274908402818) rotate(0 9.403940383621375 -7.140347576763816)"><path d="M0 0 C3.13 -2.38, 15.67 -11.9, 18.81 -14.28 M0 0 C3.13 -2.38, 15.67 -11.9, 18.81 -14.28" stroke="#1e1e1e" stroke-width="4" fill="none"></path></g></g><mask></mask><g stroke-linecap="round"><g transform="translate(27.559041192197583 48.80146386151682) rotate(0 9.20558710405976 -3.194245875256456)"><path d="M0 0 C3.07 -1.06, 15.34 -5.32, 18.41 -6.39 M0 0 C3.07 -1.06, 15.34 -5.32, 18.41 -6.39" stroke="#1e1e1e" stroke-width="4" fill="none"></path></g></g><mask></mask><g stroke-linecap="round"><g transform="translate(26.720645198026432 44.70036161160533) rotate(0 10.22547634903276 -10.862213175652869)"><path d="M0 0 C3.41 -3.62, 17.04 -18.1, 20.45 -21.72 M0 0 C3.41 -3.62, 17.04 -18.1, 20.45 -21.72" stroke="#1e1e1e" stroke-width="4" fill="none"></path></g></g><mask></mask><g stroke-linecap="round"><g transform="translate(28.013338600078896 26.597410160542495) rotate(0 8.79294388488961 5.031139739165155)"><path d="M0 0 C2.93 1.68, 14.65 8.39, 17.59 10.06 M0 0 C2.93 1.68, 14.65 8.39, 17.59 10.06" stroke="#1e1e1e" stroke-width="4" fill="none"></path></g></g><mask></mask><g stroke-linecap="round"><g transform="translate(25.739708433296983 31.869093149831315) rotate(0 10.467330554732143 11.822305746605707)"><path d="M0 0 C3.49 3.94, 17.45 19.7, 20.93 23.64 M0 0 C3.49 3.94, 17.45 19.7, 20.93 23.64" stroke="#1e1e1e" stroke-width="4" fill="none"></path></g></g><mask></mask><g stroke-linecap="round"><g transform="translate(26.007850148345824 53.07943111904024) rotate(0 9.226015211932008 3.734023286971933)"><path d="M0 0 C3.08 1.24, 15.38 6.22, 18.45 7.47 M0 0 C3.08 1.24, 15.38 6.22, 18.45 7.47" stroke="#1e1e1e" stroke-width="4" fill="none"></path></g></g><mask></mask><g transform="translate(10 70.32421258502654) rotate(0 41.568360000594566 7.86051416639566)"><text x="0" y="11.017296655619994" font-family="Virgil, Segoe UI Emoji" font-size="12.576822666232871px" fill="#1e1e1e" text-anchor="start" style="white-space: pre;" direction="ltr" dominant-baseline="alphabetic">AI Enterprise</text></g></svg>